HIERARCHY
ROOT Hips
{
	OFFSET 0.000000 0.000000 0.000000
	CHANNELS 6 Xposition Yposition Zposition Zrotation Yrotation Xrotation 
	JOINT LHipJoint
	{
		OFFSET 0.000000 0.000000 0.000000
		CHANNELS 3 Zrotation Yrotation Xrotation
		JOINT LeftUpLeg
		{
			OFFSET 1.363060 -1.794630 0.839290
			CHANNELS 3 Zrotation Yrotation Xrotation
			JOINT LeftLeg
			{
				OFFSET 2.448110 -6.726130 0.000000
				CHANNELS 3 Zrotation Yrotation Xrotation
				JOINT LeftFoot
				{
					OFFSET 2.562200 -7.039590 0.000000
					CHANNELS 3 Zrotation Yrotation Xrotation
					JOINT LeftToeBase
					{
						OFFSET 0.157640 -0.433110 2.322550
						CHANNELS 3 Zrotation Yrotation Xrotation
						End Site
						{
							OFFSET 0.000000 0.000000 0.000000
						}
					}
				}
			}
		}
	}
	JOINT RHipJoint
	{
		OFFSET 0.000000 0.000000 0.000000
		CHANNELS 3 Zrotation Yrotation Xrotation
		JOINT RightUpLeg
		{
			OFFSET -1.305520 -1.794630 0.839290
			CHANNELS 3 Zrotation Yrotation Xrotation
			JOINT RightLeg
			{
				OFFSET -2.542530 -6.985550 0.000000
				CHANNELS 3 Zrotation Yrotation Xrotation
				JOINT RightFoot
				{
					OFFSET -2.568260 -7.056230 0.000000
					CHANNELS 3 Zrotation Yrotation Xrotation
					JOINT RightToeBase
					{
						OFFSET -0.164730 -0.452590 2.363150
						CHANNELS 3 Zrotation Yrotation Xrotation
						End Site
						{
							OFFSET 0.000000 0.000000 0.000000
						}
					}
				}
			}
		}
	}
}
MOTION
Frames: 16
Frame Time: 0.008333
3.290172 16.709416 0.264859 -179.158381 -62.079817 -169.800049 -11.129249 1.331464 -1.085833 -4.830782 23.686028 -23.582649 -1.836532 0.731421 29.892231 3.719188 22.152383 -12.966440 -1.978200 -0.000000 -48.114100 9.248953 -1.378373 6.669533 -1.291921 15.461057 -31.716869 1.126307 -1.705601 33.901121 -0.132151 2.083727 -8.128147 -0.003700 -0.000000 -67.536600
3.246436 16.742684 0.277533 -178.856161 -59.696557 -169.861541 -11.217147 1.465859 -1.215134 -5.022332 25.381272 -23.205954 -1.949199 0.675624 28.753224 3.740263 22.529900 -12.544898 -1.845600 0.000000 -48.058600 9.098622 -1.465680 7.116110 -1.592526 16.585455 -31.955286 1.211237 -1.595741 32.527642 0.097507 3.241075 -7.114848 0.034200 0.000000 -68.115300
3.200936 16.783311 0.288497 -178.617691 -57.414827 -169.857625 -11.325766 1.612648 -1.304606 -5.229236 26.946946 -22.752020 -2.056227 0.600144 27.377862 3.754337 22.901851 -11.991323 -1.649700 0.000000 -47.963400 8.930525 -1.565575 7.547702 -1.887170 17.626122 -32.051120 1.309386 -1.464610 30.880877 0.321253 4.354651 -5.973147 0.109400 0.000000 -68.681400
3.155405 16.829725 0.297413 -178.427717 -55.256249 -169.809734 -11.454032 1.766862 -1.360369 -5.442619 28.363410 -22.223351 -2.153097 0.507603 25.802325 3.762639 23.273463 -11.314394 -1.391500 0.000000 -47.824300 8.747041 -1.675609 7.961887 -2.177290 18.614238 -31.997646 1.417972 -1.315168 28.996713 0.530235 5.371398 -4.729389 0.221500 -0.000001 -69.210200
3.111883 16.880219 0.305006 -178.266152 -53.235683 -169.759586 -11.602947 1.923518 -1.391965 -5.633294 29.627370 -21.611515 -2.236206 0.403613 24.075313 3.765264 23.642948 -10.532031 -1.076300 -0.000000 -47.636900 8.550002 -1.790892 8.347354 -2.443218 19.555650 -31.768384 1.537883 -1.149372 26.902969 0.720335 6.263286 -3.403443 0.366200 0.000000 -69.667000
3.072147 16.932787 0.311138 -178.125573 -51.380955 -169.720388 -11.765410 2.076820 -1.405930 -5.793032 30.731351 -20.930976 -2.301891 0.291417 22.253565 3.763147 24.007924 -9.665605 -0.711600 0.000000 -47.395400 8.346211 -1.909683 8.707038 -2.693993 20.479260 -31.379699 1.664461 -0.973206 24.666233 0.884097 6.982986 -2.034668 0.531000 -0.000000 -70.039800
3.038028 16.985509 0.316792 -177.993386 -49.716366 -169.726071 -11.936168 2.221963 -1.410639 -5.894698 31.682294 -20.182454 -2.348272 0.176511 20.398270 3.755680 24.356169 -8.745669 -0.310301 0.000000 -47.095300 8.142635 -2.027584 9.032242 -2.911442 21.373736 -30.825333 1.796892 -0.791299 22.340874 1.020047 7.519984 -0.652082 0.702499 0.000000 -70.316200
3.010683 17.036613 0.322717 -177.859072 -48.269543 -169.798069 -12.105954 2.356012 -1.411604 -5.923684 32.488004 -19.377430 -2.375264 0.063542 18.569231 3.742258 24.671817 -7.806333 0.111200 -0.000001 -46.734600 7.949620 -2.140479 9.316926 -3.081769 22.217335 -30.116677 1.932455 -0.609333 19.996149 1.128026 7.876274 0.709598 0.866100 0.000000 -70.493600
2.990779 17.084569 0.329798 -177.712132 -47.066665 -169.953263 -12.264111 2.477439 -1.413153 -5.868770 33.157719 -18.528599 -2.384659 -0.043095 16.818132 3.721912 24.935271 -6.882724 0.533800 -0.000000 -46.317300 7.779475 -2.242737 9.551657 -3.184791 22.969043 -29.269347 2.068469 -0.432643 17.701689 1.210545 8.075434 2.016476 1.011200 -0.000000 -70.581800
2.978645 17.128247 0.338680 -177.547357 -46.126430 -170.197757 -12.399629 2.586503 -1.417925 -5.727700 33.699490 -17.653613 -2.380062 -0.139390 15.184889 3.693821 25.127277 -6.007150 0.938000 -0.000000 -45.854900 7.645320 -2.327275 9.724832 -3.198565 23.575678 -28.305171 2.202095 -0.265608 15.523034 1.272254 8.158073 3.237707 1.132700 -0.000000 -70.602100
2.973662 17.166917 0.350081 -177.354540 -45.456952 -170.531361 -12.504785 2.684619 -1.426315 -5.506369 34.117800 -16.773348 -2.365781 -0.222175 13.693684 3.657719 25.231727 -5.206457 1.306300 0.000001 -45.368600 7.557482 -2.386821 9.823842 -3.103568 23.980389 -27.250713 2.331516 -0.110779 13.514152 1.319264 8.174729 4.348303 1.232100 -0.000000 -70.584301
2.974796 17.200244 0.364126 -177.134070 -45.055984 -170.938637 -12.577036 2.774496 -1.435555 -5.218757 34.412808 -15.910651 -2.346181 -0.289486 12.353696 3.613767 25.237829 -4.498507 1.625200 -0.000000 -44.877100 7.521041 -2.416062 9.837786 -2.887190 24.129677 -26.132705 2.456137 0.031692 11.707664 1.358493 8.178600 5.333192 1.316500 0.000001 -70.566500
2.980454 17.228259 0.380891 -176.888490 -44.913325 -171.400607 -12.619973 2.859570 -1.439048 -4.887120 34.582806 -15.090204 -2.324627 -0.340982 11.161362 3.562720 25.141501 -3.892736 1.886500 0.000000 -44.410300 7.533756 -2.413585 9.762181 -2.552731 23.986683 -24.982763 2.575951 0.163065 10.120778 1.395967 8.213188 6.186008 1.394900 -0.000000 -70.584100
2.988975 17.251242 0.399972 -176.630813 -45.014042 -171.891420 -12.640918 2.943647 -1.428202 -4.537149 34.626859 -14.335168 -2.303655 -0.377797 10.105102 3.505139 24.942431 -3.390499 2.087200 -0.000000 -43.991500 7.587928 -2.382115 9.599167 -2.116871 23.532391 -23.831496 2.691234 0.285671 8.751139 1.436422 8.310475 6.909590 1.476000 0.000000 -70.667300
2.998463 17.269657 0.420838 -176.371231 -45.338645 -172.386234 -12.648043 3.030314 -1.394827 -4.195698 34.547647 -13.666220 -2.284986 -0.402160 9.169708 3.441539 24.644299 -2.986969 2.228700 -0.000000 -43.636700 7.673162 -2.327332 9.357279 -1.608437 22.769584 -22.709717 2.802082 0.402064 7.582949 1.482705 8.488802 7.513697 1.566600 -0.000000 -70.836500
3.007349 17.283994 0.442784 -176.119875 -45.860449 -172.862006 -12.646861 3.121871 -1.334603 -3.886708 34.356455 -13.100624 -2.270240 -0.416845 8.339500 3.372257 24.254130 -2.672617 2.316000 -0.000000 -43.362099 7.779797 -2.255693 9.050538 -1.064498 21.727442 -21.649460 2.907446 0.513890 6.595628 1.535203 8.750207 8.010456 1.669600 -0.000000 -71.096000
